<svg width="14" height="15" viewBox="0 0 14 15" fill="none" xmlns="http://www.w3.org/2000/svg">
<path d="M4.33274 15C3.79866 14.9731 3.29608 14.7567 2.92875 14.3955C2.48929 14.0027 2.09713 13.5666 1.75919 13.0949C1.2313 12.3925 0.814017 11.6238 0.519979 10.8118C0.187205 9.93828 0.0121419 9.01965 0.00187212 8.09307C-0.0239802 7.1839 0.218338 6.28548 0.702591 5.49508C1.05726 4.92537 1.56315 4.44961 2.17198 4.11322C2.77407 3.77826 3.46114 3.59797 4.16286 3.59078C4.69186 3.61986 5.21169 3.73221 5.7002 3.92303C6.09005 4.08244 6.49944 4.19451 6.91987 4.25606C7.38364 4.16579 7.8368 4.03364 8.27289 3.86147C8.78902 3.67422 9.33549 3.56937 9.88922 3.55132C9.96311 3.55132 10.0362 3.55132 10.1067 3.55922C11.3212 3.59157 12.4509 4.14558 13.1643 5.05866C12.6075 5.33538 12.1442 5.75014 11.8259 6.25684C11.5075 6.76355 11.3467 7.34236 11.3612 7.92892C11.3556 8.37744 11.4524 8.82196 11.6452 9.23318C11.838 9.6444 12.1225 10.013 12.4798 10.3146C12.8051 10.6027 13.1839 10.8331 13.5975 10.9957C13.5126 11.2324 13.4149 11.4613 13.3113 11.6917C13.076 12.201 12.7857 12.6867 12.4449 13.1415C12.1227 13.597 11.7476 14.0184 11.3263 14.3979C10.9421 14.7521 10.4299 14.9611 9.88922 14.9842C9.43087 14.9653 8.9806 14.8654 8.56253 14.6899C8.11169 14.5074 7.6272 14.4074 7.13561 14.3955C6.63015 14.4047 6.13132 14.5041 5.66622 14.6883C5.26452 14.8567 4.83534 14.9615 4.39644 14.9984L4.33274 15ZM7.00821 3.55132C6.9445 3.55132 6.8808 3.55132 6.8171 3.54422C6.8037 3.45028 6.79661 3.35566 6.79587 3.2609C6.82365 2.47262 7.1552 1.71982 7.73016 1.13958C8.05174 0.806114 8.44152 0.535431 8.87679 0.343295C9.28241 0.149277 9.72568 0.032559 10.1805 0C10.1933 0.103383 10.1933 0.204399 10.1933 0.300679C10.1813 1.07658 9.86758 1.82224 9.30996 2.39991C9.03997 2.73627 8.69401 3.01365 8.29638 3.21256C7.89874 3.41148 7.45906 3.5271 7.00821 3.55132Z" fill="white"/>
</svg>
