<svg width="16" height="14" viewBox="0 0 16 14" fill="none" xmlns="http://www.w3.org/2000/svg">
<path fill-rule="evenodd" clip-rule="evenodd" d="M1.0893 7.68571C0.756504 7.63989 0.5 7.35039 0.5 7.00009C0.5 6.61795 0.80526 6.30816 1.18182 6.30816L13.1666 6.30816L8.83724 1.93222L8.77107 1.85475C8.57247 1.58429 8.59369 1.19984 8.83525 0.953677C9.10096 0.682901 9.53267 0.681994 9.79948 0.951651L15.2898 6.50036C15.3225 6.53215 15.3521 6.56722 15.378 6.60504C15.5639 6.87525 15.5377 7.25007 15.2994 7.49078L9.79944 13.0484L9.72283 13.1152C9.45548 13.3156 9.07675 13.2925 8.83521 13.0463C8.56952 12.7755 8.57045 12.3374 8.83729 12.0677L13.1677 7.69203L1.18182 7.69203L1.0893 7.68571Z" fill="#595D5F"/>
</svg>
