<svg width="21" height="23" viewBox="0 0 21 23" fill="none" xmlns="http://www.w3.org/2000/svg">
<path fill-rule="evenodd" clip-rule="evenodd" d="M8.25 1C8.25 0.585787 8.58578 0.25 9 0.25L13 0.25C13.4142 0.25 13.75 0.585786 13.75 1C13.75 1.41421 13.4142 1.75 13 1.75L9 1.75C8.58578 1.75 8.25 1.41421 8.25 1ZM2.75 13C2.75 8.44365 6.44365 4.75 11 4.75C15.5563 4.75 19.25 8.44365 19.25 13C19.25 17.5563 15.5564 21.25 11 21.25L6 21.25C5.58579 21.25 5.25 21.5858 5.25 22C5.25 22.4142 5.58579 22.75 6 22.75L11 22.75C16.3848 22.75 20.75 18.3848 20.75 13C20.75 7.61522 16.3848 3.25 11 3.25C5.61522 3.25 1.25 7.61523 1.25 13C1.25 13.4142 1.58579 13.75 2 13.75C2.41421 13.75 2.75 13.4142 2.75 13ZM0.25 16C0.25 15.5858 0.585786 15.25 1 15.25L6 15.25C6.41421 15.25 6.75 15.5858 6.75 16C6.75 16.4142 6.41421 16.75 6 16.75L1 16.75C0.585787 16.75 0.25 16.4142 0.25 16ZM2.25 19C2.25 18.5858 2.58579 18.25 3 18.25L9 18.25C9.41421 18.25 9.75 18.5858 9.75 19C9.75 19.4142 9.41421 19.75 9 19.75L3 19.75C2.58579 19.75 2.25 19.4142 2.25 19ZM11.75 10C11.75 9.58579 11.4142 9.25 11 9.25C10.5858 9.25 10.25 9.58579 10.25 10L10.25 14C10.25 14.4142 10.5858 14.75 11 14.75C11.4142 14.75 11.75 14.4142 11.75 14L11.75 10Z" fill="#636F7E"/>
</svg>
