<svg width="20" height="20" viewBox="0 0 20 20" fill="none" xmlns="http://www.w3.org/2000/svg">
<path d="M10 1.25C10.3517 1.26292 10.6446 1.38667 10.8787 1.62125C11.1129 1.85583 11.2367 2.14875 11.25 2.5V3.75H8.75V2.5C8.76292 2.14833 8.88667 1.85542 9.12125 1.62125C9.35583 1.38708 9.64875 1.26333 10 1.25ZM5 15H15V8.75C14.9608 7.33083 14.4725 6.1525 13.535 5.215C12.5975 4.2775 11.4192 3.78917 10 3.75C8.58083 3.78917 7.4025 4.2775 6.465 5.215C5.5275 6.1525 5.03917 7.33083 5 8.75V15ZM10 2.5C11.7708 2.53917 13.2454 3.14792 14.4237 4.32625C15.6021 5.50458 16.2108 6.97917 16.25 8.75V16.25H3.75V8.75C3.78917 6.97917 4.39792 5.50458 5.57625 4.32625C6.75458 3.14792 8.22917 2.53917 10 2.5ZM1.875 15H18.125C18.5417 15 18.75 15.2083 18.75 15.625C18.75 16.0417 18.5417 16.25 18.125 16.25H1.875C1.45833 16.25 1.25 16.0417 1.25 15.625C1.25 15.2083 1.45833 15 1.875 15ZM8.75 17.5H11.25C11.2371 17.8517 11.1133 18.1446 10.8787 18.3787C10.6442 18.6129 10.3512 18.7302 10 18.7306C9.64875 18.731 9.35583 18.6137 9.12125 18.3787C8.88667 18.1437 8.76292 17.8508 8.75 17.5Z" fill="#4EB1BE"/>
</svg>
