<svg width="18" height="18" viewBox="0 0 18 18" fill="none" xmlns="http://www.w3.org/2000/svg">
<path d="M5.62511 5.06248V4.67548C5.64873 3.66748 5.97686 2.82955 6.60948 2.16167C7.24211 1.4938 8.03898 1.14805 9.00011 1.12442C9.96123 1.14805 10.7581 1.4938 11.3907 2.16167C12.0234 2.82955 12.3515 3.66748 12.3751 4.67548V5.06248H14.678C14.8302 5.06248 14.9562 5.10936 15.056 5.20311C15.1557 5.29686 15.2172 5.41986 15.2405 5.57211L16.2423 15.6971C16.2659 15.8614 16.222 16.005 16.1107 16.128C15.9993 16.251 15.8617 16.3125 15.6978 16.3125H2.30298C2.13873 16.3125 2.00111 16.251 1.89011 16.128C1.77911 16.005 1.73523 15.8614 1.75848 15.6971L2.76029 5.57211C2.78392 5.41986 2.84542 5.29686 2.94479 5.20311C3.04417 5.10936 3.17017 5.06248 3.32279 5.06248H5.62567H5.62511ZM6.75011 5.06248H11.2501V4.67548C11.2385 3.98398 11.0187 3.40967 10.5909 2.95255C10.163 2.49542 9.63273 2.26105 9.00011 2.24942C8.36711 2.26105 7.83686 2.49542 7.40936 2.95255C6.98186 3.40967 6.76211 3.98398 6.75011 4.67548V5.06248ZM5.62511 6.18748H3.83186L2.93523 15.1875H15.0644L14.1678 6.18748H12.3745V7.87498C12.3745 8.03923 12.3219 8.17405 12.2165 8.27942C12.1111 8.3848 11.9763 8.43748 11.812 8.43748C11.6478 8.43748 11.513 8.3848 11.4076 8.27942C11.3022 8.17405 11.2495 8.03923 11.2495 7.87498V6.18748H6.74954V7.87498C6.74954 8.03923 6.69686 8.17405 6.59148 8.27942C6.48611 8.3848 6.35129 8.43748 6.18704 8.43748C6.02279 8.43748 5.88798 8.3848 5.78261 8.27942C5.67723 8.17405 5.62454 8.03923 5.62454 7.87498V6.18748H5.62511Z" fill="#595D5F"/>
</svg>
