<svg width="20" height="20" viewBox="0 0 20 20" fill="none" xmlns="http://www.w3.org/2000/svg">
<path d="M1.66675 8.33324L8.95891 2.4995C9.56758 2.01254 10.4326 2.01254 11.0412 2.4995L18.3334 8.33324" stroke="#12A9CA" stroke-width="1.5" stroke-linecap="round" stroke-linejoin="round"/>
<path d="M7.89794 3.37454L4.56461 6.08287C3.9594 6.5746 3.65679 6.82047 3.49502 7.16034C3.33325 7.50022 3.33325 7.89012 3.33325 8.66993V11.6667C3.33325 14.8093 3.33325 16.3808 4.30956 17.357C5.28588 18.3333 6.85722 18.3333 9.99992 18.3333C13.1426 18.3333 14.714 18.3333 15.6903 17.357C16.6666 16.3808 16.6666 14.8093 16.6666 11.6667V8.66993C16.6666 7.89012 16.6666 7.50022 16.5048 7.16034C16.343 6.82047 16.0404 6.5746 15.4353 6.08287L12.1019 3.37454C11.0951 2.55649 10.5917 2.14746 9.99992 2.14746C9.40817 2.14746 8.90475 2.55649 7.89794 3.37454Z" stroke="#12A9CA" stroke-width="1.5"/>
<path d="M8.125 13.5417H11.875" stroke="#12A9CA" stroke-width="1.5" stroke-linecap="round"/>
</svg>
