<svg width="16" height="16" viewBox="0 0 16 16" fill="none" xmlns="http://www.w3.org/2000/svg">
<path fill-rule="evenodd" clip-rule="evenodd" d="M13.2 2H8.017L7.664 2.146L1 8.81V9.517L6.183 14.7H6.89L9.105 12.485C9.75193 12.8263 10.4726 13.004 11.204 13.0026C11.9355 13.0013 12.6554 12.8208 13.3011 12.477C13.9467 12.1332 14.4983 11.6366 14.9078 11.0305C15.3172 10.4244 15.5721 9.72728 15.65 9C15.677 8.834 15.694 8.668 15.701 8.5C15.7003 7.76032 15.5175 7.03219 15.1686 6.37992C14.8198 5.72765 14.3158 5.1713 13.701 4.76V2.5L13.201 2H13.2ZM12.7 4.259C12.2183 4.08819 11.7111 4.0006 11.2 4C11.0674 4 10.9402 4.05268 10.8464 4.14645C10.7527 4.24021 10.7 4.36739 10.7 4.5C10.7 4.63261 10.7527 4.75979 10.8464 4.85355C10.9402 4.94732 11.0674 5 11.2 5C11.7189 5.00009 12.2312 5.11554 12.7 5.338V7.476L8.775 11.4C8.68195 11.4481 8.60613 11.5239 8.558 11.617L6.536 13.639L2.061 9.163L8.224 3H12.7V4.259ZM13.7 6.051C14.3409 6.70508 14.6999 7.58428 14.7 8.5C14.6952 8.66769 14.6782 8.8348 14.649 9C14.575 9.5277 14.381 10.0314 14.082 10.4725C13.783 10.9135 13.3868 11.2802 12.924 11.5443C12.4612 11.8084 11.944 11.9629 11.4121 11.9959C10.8803 12.029 10.348 11.9397 9.856 11.735L13.554 8.037L13.7 7.683V6.051Z" fill="#4EB1BE"/>
</svg>
