<svg width="18" height="18" viewBox="0 0 18 18" fill="none" xmlns="http://www.w3.org/2000/svg">
<path d="M10.6381 7.7282L10.5517 8.878H9.43065V12.7294H7.95525V8.878H7.20825V7.7282H7.95525V6.866V6.617C7.95525 6.617 7.90245 5.3442 9.43065 5.2754C10.1733 5.2422 10.7919 5.4096 10.7919 5.4096L10.6349 6.54C10.6349 6.54 9.43065 6.1668 9.43065 6.8942V7.728H10.6381V7.7282Z" fill="white"/>
<path d="M8.99982 17.355C4.39322 17.355 0.64502 13.6068 0.64502 8.9998C0.64502 4.3928 4.39322 0.644997 8.99982 0.644997C13.6068 0.644997 17.355 4.3928 17.355 8.9998C17.355 13.6068 13.6068 17.355 8.99982 17.355ZM8.99982 1.7928C5.02582 1.7928 1.79282 5.0258 1.79282 8.9998C1.79282 12.9738 5.02582 16.207 8.99982 16.207C12.9742 16.207 16.207 12.9738 16.207 8.9998C16.207 5.0258 12.9742 1.7928 8.99982 1.7928Z" fill="white"/>
</svg>
