<svg width="253" height="181" viewBox="0 0 253 181" fill="none" xmlns="http://www.w3.org/2000/svg">
<path fill-rule="evenodd" clip-rule="evenodd" d="M142.637 179.978V93.0634H138.356V179.978H142.637ZM225.84 179.978V93.0634H221.559V179.978H225.84Z" fill="#BABEC2"/>
<path fill-rule="evenodd" clip-rule="evenodd" d="M142.637 100.565L138.356 100.656V93.0634H142.637V100.565ZM225.84 93.3418V98.7685L221.559 98.8604V93.3272L225.84 93.3418Z" fill="black"/>
<path d="M245.002 91.1805H119.547V94.467H245.002V91.1805Z" fill="#BABEC2"/>
<path fill-rule="evenodd" clip-rule="evenodd" d="M121.313 91.3035C122.856 84.8112 128.232 80.0138 134.62 80.0138C141.007 80.0138 146.383 84.8112 147.926 91.3035H121.313Z" fill="#B9D8D6"/>
<path fill-rule="evenodd" clip-rule="evenodd" d="M143.168 91.304C141.045 86.3465 137.701 85.3384 137.701 85.3384C137.418 85.2567 137.255 84.961 137.336 84.6784C137.418 84.3958 137.714 84.2327 137.997 84.3144C137.997 84.3144 141.988 85.4236 144.323 91.304H143.168Z" fill="#82B5B2"/>
<path fill-rule="evenodd" clip-rule="evenodd" d="M147.574 91.3034C147.97 99.2109 148.912 111.664 151.23 118.248C151.741 119.696 152.31 120.851 152.969 121.58C153.507 122.177 154.099 122.465 154.774 122.274C155.426 122.09 156.099 121.614 156.728 120.983C156.698 120.94 156.67 120.898 156.642 120.854C155.819 119.569 155.383 117.553 155.419 115.787C155.438 114.821 155.599 113.929 155.896 113.265C156.16 112.673 156.537 112.248 156.998 112.036C157.478 111.815 158.064 111.803 158.757 112.139C160.461 112.963 160.831 114.81 160.316 116.831C159.949 118.262 159.143 119.776 158.159 120.983C158.312 121.098 158.477 121.181 158.656 121.227C159.095 121.337 159.592 121.189 160.16 120.762C160.63 120.409 161.027 119.772 161.388 118.939C161.984 117.565 162.45 115.683 162.822 113.54C164.297 105.047 164.255 92.5544 164.318 91.0702C164.33 90.7771 164.579 90.5479 164.874 90.5599C165.167 90.5732 165.396 90.8224 165.383 91.1155C165.32 92.6091 165.356 105.177 163.872 113.723C163.483 115.961 162.988 117.928 162.366 119.363C161.916 120.402 161.387 121.173 160.801 121.614C159.901 122.29 159.091 122.435 158.396 122.261C158.056 122.175 157.736 122.009 157.444 121.773C156.68 122.53 155.851 123.077 155.065 123.3C153.996 123.601 153.029 123.237 152.178 122.294C151.446 121.484 150.792 120.212 150.224 118.602C147.876 111.93 146.908 99.2948 146.507 91.3034H147.574ZM157.46 120.15C158.292 119.091 158.969 117.796 159.282 116.568C159.659 115.093 159.536 113.7 158.293 113.098C157.956 112.936 157.676 112.897 157.443 113.005C157.193 113.121 157.014 113.375 156.869 113.699C156.621 114.255 156.501 115.001 156.485 115.808C156.455 117.307 156.789 119.015 157.46 120.15ZM147.237 89.113C147.383 89.2022 147.484 89.3595 147.492 89.5433L147.505 89.8404C147.421 89.5953 147.332 89.3515 147.237 89.113Z" fill="#82B5B2"/>
<path d="M184.631 145.58C190.604 145.58 195.447 139.285 195.447 131.519C195.447 123.753 190.604 117.457 184.631 117.457C178.657 117.457 173.814 123.753 173.814 131.519C173.814 139.285 178.657 145.58 184.631 145.58Z" fill="white"/>
<path fill-rule="evenodd" clip-rule="evenodd" d="M184.702 115.912V118.349C178.964 118.461 174.472 124.386 174.472 131.53C174.472 138.673 178.964 144.598 184.702 144.71V147.148C177.771 147.038 172.034 140.145 172.034 131.53C172.034 122.913 177.771 116.02 184.702 115.912Z" fill="black"/>
<path fill-rule="evenodd" clip-rule="evenodd" d="M184.701 115.912L184.873 115.906C191.879 115.906 197.711 122.843 197.711 131.53C197.711 140.217 191.879 147.153 184.873 147.153L184.701 147.148V144.709L184.873 144.716C190.692 144.716 195.273 138.744 195.273 131.53C195.273 124.315 190.692 118.343 184.873 118.343L184.701 118.349V115.912Z" fill="black"/>
<path fill-rule="evenodd" clip-rule="evenodd" d="M184.98 131.206C185.593 131.206 186.091 131.703 186.091 132.317C186.091 132.93 185.593 133.429 184.98 133.429C184.366 133.429 183.867 132.93 183.867 132.317C183.867 131.703 184.366 131.206 184.98 131.206ZM186.889 129.749L190.63 122.505C190.765 122.243 190.662 121.921 190.401 121.786C190.139 121.652 189.818 121.754 189.683 122.016L185.942 129.26C185.806 129.521 185.908 129.843 186.171 129.978C186.432 130.112 186.753 130.01 186.889 129.749ZM181.929 123.785L183.352 129.4C183.424 129.685 183.713 129.857 183.999 129.785C184.284 129.713 184.456 129.422 184.384 129.137L182.963 123.524C182.891 123.237 182.6 123.065 182.315 123.137C182.03 123.209 181.857 123.5 181.929 123.785Z" fill="black"/>
<path d="M251.726 124.085L237.055 116.552L227.14 135.862L241.811 143.395L251.726 124.085Z" fill="#A8CFCC"/>
<path fill-rule="evenodd" clip-rule="evenodd" d="M241.466 140.856L243.957 142.134C244.22 142.269 244.541 142.165 244.676 141.904C244.81 141.641 244.706 141.32 244.444 141.185L241.952 139.908C241.69 139.774 241.369 139.877 241.234 140.139C241.101 140.401 241.203 140.723 241.466 140.856ZM243.007 137.849L245.5 139.126C245.761 139.26 246.084 139.156 246.217 138.895C246.352 138.634 246.248 138.311 245.987 138.178L243.494 136.9C243.233 136.766 242.911 136.87 242.777 137.131C242.642 137.392 242.746 137.715 243.007 137.849ZM244.55 134.841L247.042 136.118C247.304 136.252 247.625 136.149 247.76 135.887C247.894 135.625 247.791 135.304 247.528 135.17L245.037 133.892C244.774 133.757 244.453 133.861 244.318 134.123C244.185 134.385 244.289 134.706 244.55 134.841ZM246.093 131.832L248.585 133.11C248.846 133.245 249.168 133.141 249.301 132.878C249.436 132.617 249.332 132.296 249.071 132.161L246.578 130.884C246.317 130.749 245.996 130.853 245.861 131.114C245.727 131.377 245.831 131.698 246.093 131.832ZM247.635 128.824L250.128 130.101C250.389 130.236 250.71 130.132 250.844 129.87C250.979 129.609 250.875 129.287 250.614 129.153L248.121 127.875C247.86 127.741 247.537 127.844 247.404 128.106C247.27 128.368 247.374 128.689 247.635 128.824ZM249.135 125.897L251.628 127.174C251.889 127.309 252.21 127.205 252.345 126.944C252.479 126.683 252.375 126.36 252.114 126.227L249.621 124.949C249.36 124.815 249.038 124.919 248.904 125.18C248.77 125.441 248.874 125.763 249.135 125.897Z" fill="black"/>
<path fill-rule="evenodd" clip-rule="evenodd" d="M203.543 119.614L226.14 124.976L224.937 128.346L203.543 119.614Z" fill="white"/>
<path d="M226.635 127.368L203.063 118.956L192.365 148.932L215.937 157.344L226.635 127.368Z" fill="#F27F71"/>
<path fill-rule="evenodd" clip-rule="evenodd" d="M225.086 125.201L203.423 120.184C203.137 120.117 202.958 119.831 203.024 119.543C203.09 119.257 203.377 119.078 203.663 119.145L225.9 124.295C226.047 124.33 226.172 124.425 226.245 124.555C226.318 124.687 226.333 124.843 226.284 124.987L225.071 128.555C224.977 128.834 224.674 128.983 224.396 128.888C224.117 128.794 223.968 128.49 224.063 128.211L225.086 125.201Z" fill="#F27F71"/>
<path d="M244.085 128.523H214.479V163.906H244.085V128.523Z" fill="white"/>
<path fill-rule="evenodd" clip-rule="evenodd" d="M241.397 159.88H216.923V161.463H241.397V159.88ZM241.397 156.98H216.923V158.563H241.397V156.98ZM241.397 154.079H216.923V155.662H241.397V154.079ZM241.397 151.179H216.923V152.761H241.397V151.179ZM241.397 148.278H216.923V149.861H241.397V148.278ZM241.397 145.378H216.923V146.96H241.397V145.378ZM241.397 142.477H216.923V144.06H241.397V142.477ZM241.397 139.576H216.923V141.159H241.397V139.576ZM241.397 136.676H216.923V138.259H241.397V136.676ZM241.397 133.775H216.923V135.358H241.397V133.775ZM241.397 130.871H216.923V132.454H241.397V130.871Z" fill="black"/>
<path fill-rule="evenodd" clip-rule="evenodd" d="M215.012 163.373H229.386C229.679 163.373 229.919 163.611 229.919 163.906C229.919 164.2 229.679 164.439 229.386 164.439H214.479C214.185 164.439 213.946 164.2 213.946 163.906V128.523C213.946 128.228 214.185 127.99 214.479 127.99H228.633C228.926 127.99 229.166 128.228 229.166 128.523C229.166 128.817 228.926 129.055 228.633 129.055H215.012V163.373Z" fill="black"/>
<path fill-rule="evenodd" clip-rule="evenodd" d="M243.552 129.055H228.634C228.34 129.055 228.101 128.817 228.101 128.523C228.101 128.228 228.34 127.99 228.634 127.99H244.085C244.38 127.99 244.618 128.228 244.618 128.523V163.906C244.618 164.2 244.38 164.439 244.085 164.439H229.387C229.092 164.439 228.854 164.2 228.854 163.906C228.854 163.611 229.092 163.373 229.387 163.373H243.552V129.055Z" fill="black"/>
<path d="M249.37 133.299H170.243V180.584H249.37V133.299Z" fill="#FFD798"/>
<path fill-rule="evenodd" clip-rule="evenodd" d="M218.745 133.301V154.456L216.251 152.493L213.914 154.456L211.542 152.493L209.277 154.456L207.195 152.493L205.012 154.456V133.301H218.745Z" fill="#F8BB61"/>
<path d="M46.5547 31.7815C52.7255 31.7815 57.7279 26.7791 57.7279 20.6084C57.7279 14.4376 52.7255 9.4352 46.5547 9.4352C40.3839 9.4352 35.3815 14.4376 35.3815 20.6084C35.3815 26.7791 40.3839 31.7815 46.5547 31.7815Z" fill="#FFC3BB"/>
<path fill-rule="evenodd" clip-rule="evenodd" d="M40.4277 29.951C37.3889 27.9527 35.3815 24.5131 35.3815 20.6083C35.3815 14.4418 40.3881 9.4352 46.5548 9.4352C47.9453 9.4352 49.2769 9.68981 50.5059 10.1551L44.6675 21.6229C44.2318 20.8835 43.4082 20.3844 42.4649 20.3844C41.0672 20.3844 39.9326 21.4797 39.9326 22.829C39.9326 24.1781 41.0672 25.2736 42.4649 25.2736C42.5859 25.2736 42.705 25.2653 42.8213 25.2495L40.4277 29.951Z" fill="black"/>
<path fill-rule="evenodd" clip-rule="evenodd" d="M43.993 10.6975C43.993 10.6975 42.412 14.9121 42.4722 16.6936C42.5043 17.6436 43.3018 18.389 44.2518 18.3569C45.202 18.3248 45.9473 17.5272 45.9152 16.5773C45.855 14.7958 43.993 10.6975 43.993 10.6975Z" fill="white"/>
<path fill-rule="evenodd" clip-rule="evenodd" d="M43.5212 144.867C37.7462 145.376 30.6089 145.405 22.2201 144.33C16.5211 143.6 -2.5072 137.62 2.29901 112.757C3.24912 107.842 8.03135 95.6952 28.3582 94.6386C34.2906 94.3295 75.7465 89.5597 92.3544 107.865C92.6795 108.225 93.0992 108.704 93.5708 109.324C99.2107 111.883 115.517 120.72 114.895 137.116C114.895 137.116 113.607 155.481 89.7736 163.398C88.0122 167.343 85.9444 171.553 83.5288 176.036C83.5288 176.036 88.9595 177.489 90.3359 180.541H48.4315L50.9399 172.602L48.3334 173.217C48.3086 175.978 45.7252 178.733 43.5212 180.721V144.867Z" fill="url(#paint0_linear_5206_202)"/>
<path fill-rule="evenodd" clip-rule="evenodd" d="M49.0615 173.046L51.3782 143.713C51.4014 143.419 51.6581 143.201 51.9514 143.224C52.2447 143.246 52.464 143.503 52.4408 143.796L50.1511 172.789L49.0615 173.046Z" fill="#F27F71"/>
<path fill-rule="evenodd" clip-rule="evenodd" d="M56.0987 142.33L61.2183 141.338C61.2183 141.338 63.0992 135.268 64.3897 131.102C64.468 130.849 64.3468 130.577 64.1064 130.466C63.8661 130.356 63.5809 130.441 63.4401 130.665C60.6447 135.107 56.0987 142.33 56.0987 142.33Z" fill="#F27F71"/>
<path fill-rule="evenodd" clip-rule="evenodd" d="M43.5198 144.868C42.232 144.981 53.8644 142.703 60.6416 140.666C61.0654 140.538 61.5506 140.466 61.5506 140.466C61.5506 140.466 61.3604 141.153 61.2988 141.341L53.1321 166.344L88.649 165.862C88.4825 166.217 88.3146 166.575 88.1441 166.934L52.8679 167.414C52.8395 167.414 52.8117 167.411 52.7845 167.407L50.9385 172.602L49.8852 172.851L59.9719 141.971C54.6453 143.517 49.2608 144.862 43.5198 145.702V144.868ZM89.7909 163.392C105.649 129.711 93.2737 108.935 93.5694 109.324C93.9771 109.51 94.4421 109.728 94.9538 109.98C98.2327 116.362 104.39 134.217 91.1939 162.904C90.7369 163.07 90.2679 163.233 89.7909 163.392Z" fill="#F27F71"/>
<path fill-rule="evenodd" clip-rule="evenodd" d="M33.838 34.6478C58.4908 34.9108 76.0829 38.2725 96.6465 39.9423C102.859 40.4469 117.094 44.0093 113.765 56.7989C112.502 61.6513 108.102 65.0246 103.088 64.9858C94.4015 64.9187 82.5356 64.8269 82.5356 64.8269C82.5356 64.8269 91.9473 72.8338 111.542 73.1177C111.542 73.1177 133.144 74.9489 135.169 75.0309C138.748 75.1758 140.889 75.2312 142.853 75.3436C143.275 75.3686 143.648 75.6271 143.82 76.0135C143.992 76.4 143.935 76.8501 143.671 77.1806C143.263 77.688 142.442 78.2612 140.901 78.8413C138.087 79.9004 135.884 79.9923 133.721 80.6296C133.883 80.2678 137.234 83.4239 139.197 85.45C139.587 85.8587 139.727 86.4456 139.564 86.9865C139.401 87.5273 138.958 87.9383 138.407 88.0622C137.983 88.1586 137.471 88.1798 136.86 88.071C138.024 89.2066 136.664 91.0892 133 89.2399C132.038 88.7549 131.706 88.6204 129.232 87.0912C129.232 87.0912 130.022 88.5111 130.486 89.3452C130.608 89.5663 130.635 89.8288 130.556 90.07C130.479 90.3111 130.305 90.5096 130.075 90.6176C129.566 90.8547 128.763 90.9307 127.569 90.3058C125.755 89.3585 124.521 88.8375 123.388 88.3712C122.344 87.9414 121.157 88.0392 120.197 88.6337C116.242 91.0759 103.888 96.7597 80.4944 91.421C80.4944 91.421 66.479 89.5677 48.1529 77.7106C47.6654 75.7794 24.8845 102.655 4.67672 79.9902C-3.28265 71.0626 -4.92905 34.2342 33.838 34.6478Z" fill="#FFC3BB"/>
<path fill-rule="evenodd" clip-rule="evenodd" d="M129.263 87.1443C125.695 82.4109 123.178 82.3037 123.178 82.3037C122.885 82.299 122.649 82.0564 122.655 81.7623C122.659 81.4682 122.901 81.2333 123.196 81.2379C123.196 81.2379 126.597 81.2119 131.061 87.8318C131.145 87.9577 131.169 88.107 131.139 88.2443C130.682 87.9775 130.084 87.6166 129.233 87.0908L129.263 87.1443ZM136.86 88.0707C136.9 88.11 131.98 83.823 131.362 83.1501C129.257 80.8569 127.716 79.7838 126.696 79.2916C125.932 78.9231 125.45 78.9158 125.431 78.9156C125.438 78.915 125.445 78.914 125.45 78.913L125.431 78.9156C125.149 78.9523 124.885 78.7576 124.838 78.4736C124.791 78.1834 124.988 77.909 125.278 77.8612C125.278 77.8612 127.521 77.3923 132.148 82.4291C132.835 83.1782 136.198 86.3639 138.528 88.0296C138.488 88.0419 138.449 88.0527 138.407 88.0619C137.984 88.1582 137.472 88.1794 136.86 88.0707ZM126.97 74.4027C127.948 74.4825 128.892 74.5587 129.77 74.629C130.526 75.1701 131.302 75.9 132.004 76.8842C132.493 77.5697 133.448 78.9616 135.155 80.2729C134.718 80.3662 134.286 80.4678 133.857 80.5897C132.434 79.3582 131.594 78.1438 131.137 77.5031C129.763 75.5773 128.076 74.7528 126.97 74.4027Z" fill="#F27F71"/>
<path fill-rule="evenodd" clip-rule="evenodd" d="M75.9338 90.4377C70.3652 88.9708 60.1883 85.4985 48.1516 77.7106C47.9309 76.0778 24.5453 103.463 4.67548 79.9902C-3.16238 70.7311 -4.93029 34.2342 33.8368 34.6478C58.4895 34.9108 76.0817 38.2725 96.6453 39.9423C102.858 40.4469 117.093 44.0093 113.763 56.7989C112.5 61.6513 108.101 65.0246 103.087 64.9858C94.4003 64.9187 82.5343 64.8269 82.5343 64.8269C82.5343 64.8269 89.2387 70.5306 103.11 72.4806L99.9975 93.6207C96.4907 93.6953 92.5203 93.4795 88.0636 92.8373C84.393 92.1085 80.184 91.2744 75.9338 90.4377Z" fill="url(#paint1_linear_5206_202)"/>
<path fill-rule="evenodd" clip-rule="evenodd" d="M44.4917 80.3398C41.4715 76.7223 39.8972 72.7236 39.1906 70.51C39.1384 70.3246 39.2209 70.1275 39.3895 70.0345C39.5582 69.9415 39.7689 69.9769 39.8977 70.12C43.2506 73.7422 47.4089 77.116 48.0625 77.6403C47.7269 77.6617 46.4609 78.788 44.4917 80.3398ZM82.5515 64.8419L82.5528 64.8434L82.5582 64.8476L82.5675 64.8554L82.5728 64.8595L82.5768 64.8636L82.5835 64.869L82.5942 64.8769L82.6035 64.8845L82.6115 64.8915L82.6181 64.8971L82.6275 64.9045L82.6434 64.9168L82.6554 64.9269L82.6621 64.9318L82.6701 64.9377L82.6941 64.9565L82.7101 64.9695L82.7141 64.973L82.7194 64.9766L82.7594 65.0082L82.774 65.0192L82.7753 65.0203C82.7967 65.0368 82.8193 65.0543 82.8433 65.0727L82.8486 65.0759L82.8713 65.0933L82.9126 65.1249L82.9219 65.1316C82.9432 65.1478 82.9672 65.1647 82.9899 65.1822L82.9939 65.1845L82.9979 65.1879C83.0525 65.2279 83.1111 65.2709 83.1737 65.3166L83.1857 65.3246L83.2124 65.3443L83.227 65.3543L83.231 65.3577L83.243 65.3662L83.267 65.3827L83.279 65.3918L83.287 65.3974L83.3043 65.4092L83.3229 65.4231L83.3336 65.4303L83.3443 65.4381L83.3669 65.4537L83.3829 65.4648L83.3896 65.4698L83.4042 65.4797L83.4322 65.4996L83.4442 65.5078L83.4482 65.5105L83.4629 65.521L83.5001 65.5467L83.5081 65.5522C77.2567 61.6259 66.0836 53.309 58.7228 47.5969C58.4324 47.3715 58.3795 46.9526 58.6049 46.6622C58.8304 46.3717 59.2491 46.3189 59.5397 46.5444C67.1519 52.4517 78.8649 61.171 84.8925 64.8452L82.5329 64.827L82.5475 64.8396L82.5515 64.8419ZM85.8691 44.7465L104.22 45.2673C104.586 45.2777 104.894 44.9878 104.904 44.6203C104.914 44.2527 104.625 43.9459 104.257 43.9355L85.9064 43.4147C85.5387 43.4042 85.2322 43.6941 85.2216 44.0617C85.2109 44.4291 85.5014 44.736 85.8691 44.7465Z" fill="#AC2310"/>
<path fill-rule="evenodd" clip-rule="evenodd" d="M67.3334 46.7798C64.6503 40.6315 52.0497 35.408 52.0497 35.408L57.1599 35.821C62.8426 38.4032 67.0372 42.892 68.6871 44.8487C69.3161 44.933 70.8812 45.1717 70.9068 45.4602C70.9389 45.8216 71.157 51.8886 71.157 51.8886C71.137 51.8985 71.1172 51.9082 71.0975 51.9177L71.2736 51.9291C74.4216 57.7552 73.2761 66.0136 77.7694 70.977C79.1923 72.5485 81.0536 74.0255 83.0895 74.7018C85.4544 75.4872 87.91 75.4512 90.3642 75.307C91.013 75.2689 92.5892 75.1541 93.3819 75.0956C93.6764 75.0742 93.9602 75.2055 94.1347 75.4435C94.8142 76.3709 96.5529 78.7457 97.399 79.8999C97.6735 80.2742 97.6361 80.7921 97.3111 81.1232C96.1452 82.3099 93.5045 84.9987 92.6065 85.9114C92.412 86.1097 92.1335 86.2007 91.8591 86.1552C91.3394 86.0753 90.512 85.9409 90.2016 85.8513C88.3963 85.33 86.6162 84.7187 84.8802 83.9991C79.9131 81.9414 74.6615 78.6978 72.4987 73.5701C71.2352 70.5748 71.044 67.3779 71.0579 64.1711C71.07 61.3441 71.4006 58.3693 70.8105 55.5787C70.581 54.4934 70.071 53.4769 69.5679 52.4968C69.5563 52.4742 69.5098 52.3988 69.4511 52.3003C67.0824 52.2153 65.988 49.1907 65.988 49.1907L67.3334 46.7798Z" fill="black"/>
<path fill-rule="evenodd" clip-rule="evenodd" d="M91.2703 64.8548L86.4591 43.4446C86.4591 43.4446 81.8892 43.1727 79.1765 42.6838C79.1765 42.6838 72.5222 40.5199 67.8509 42.0595C67.0913 42.3098 64.7459 43.5933 63.1484 46.6769C62.4812 47.9642 64.68 48.8001 67.2152 46.6769C67.7335 46.2428 68.7289 45.7393 69.7644 45.6528C69.7644 45.6528 66.5299 48.1838 69.7644 50.3077C69.7644 50.3077 69.1008 52.5618 71.9042 53.0313C71.9042 53.0313 71.4872 56.4014 76.6317 59.6514C78.1053 60.583 89.5462 65.2289 91.2703 64.8548Z" fill="#FFC3BB"/>
<path fill-rule="evenodd" clip-rule="evenodd" d="M70.9917 52.773C71.4191 51.5401 72.3599 50.8034 73.2673 50.3724C74.3167 49.8738 75.3104 49.7947 75.3104 49.7947C75.6035 49.7706 75.8606 49.9889 75.8846 50.2821C75.9086 50.5753 75.6901 50.8328 75.397 50.857C75.397 50.857 74.5906 50.9392 73.7247 51.3351C72.3745 51.9526 71.9046 53.0318 71.9046 53.0318C71.5466 52.9718 71.2451 52.8828 70.9917 52.773ZM68.9935 49.6773C69.5727 48.6716 70.4727 48.0214 71.3845 47.6088C72.8795 46.932 74.3908 46.9035 74.3908 46.9035C74.6848 46.8976 74.9284 47.1316 74.9343 47.4256C74.9401 47.7198 74.7062 47.9632 74.4121 47.9692C74.4121 47.9692 73.1115 47.9969 71.824 48.5798C71.0058 48.9501 69.7648 50.3082 69.7648 50.3082C69.4492 50.1009 69.1951 49.8897 68.9935 49.6773ZM67.9319 46.2088C67.9415 46.1184 67.9743 46.0293 68.0318 45.9508C69.6848 43.6924 73.3112 43.5466 73.3112 43.5466C73.6052 43.5371 73.8517 43.7679 73.8613 44.062C73.8709 44.3559 73.64 44.6024 73.346 44.6119C73.346 44.6119 72.2226 44.6505 71.0173 45.0983C70.3292 45.3539 69.7648 45.6533 69.7648 45.6533C69.0985 45.7089 68.4487 45.9372 67.9319 46.2088Z" fill="#F27F71"/>
<path fill-rule="evenodd" clip-rule="evenodd" d="M34.7234 34.6471C34.7234 34.6471 39.9983 34.9567 47.562 39.3687C49.9158 40.7417 55.6712 44.5602 62.6577 46.7045C65.3112 47.5189 66.5981 46.9148 67.4939 47.1835L66.4971 49.5595C66.4971 49.5595 62.0353 49.0966 60.3566 48.4906C60.3566 48.4906 39.2447 35.2002 34.7234 34.6471Z" fill="black"/>
<path d="M55.0653 144.909H5.08615V180.584H55.0653V144.909Z" fill="#FFD798"/>
<path fill-rule="evenodd" clip-rule="evenodd" d="M14.812 180.586H13.7462V144.909H14.812V180.586ZM38.2133 144.909V163.409L35.1293 161.21L32.0821 163.409V144.909H38.2133ZM11.925 144.909V157.267L9.48368 153.548L7.80771 155.12V144.909H11.925Z" fill="#F8BB61"/>
<path fill-rule="evenodd" clip-rule="evenodd" d="M184.708 73.1368H150.223V17.4263H233.942V73.1368H197.704V87.4818H202.391V91.3016H180.06V87.4818H184.708V73.1368Z" fill="#A3A8AE"/>
<path fill-rule="evenodd" clip-rule="evenodd" d="M231.733 17.4263V73.1368H195.495V87.4818H200.182V91.3016H180.06V87.4818H184.708V73.1368H150.223V17.4263H231.733Z" fill="#E4E4E6"/>
<path d="M227.878 21.6864H154.394V67.5258H227.878V21.6864Z" fill="white"/>
<path fill-rule="evenodd" clip-rule="evenodd" d="M195.515 87.3653H197.319C197.225 87.4484 197.101 87.4989 196.966 87.4989L184.728 87.3653V86.433H195.515V87.3653ZM195.515 74.2105H184.728V73.1446H195.515V74.2105Z" fill="#A3A8AE"/>
<path d="M205.623 0.735931H163.867V51.8963H205.623V0.735931Z" fill="#FFF3EB"/>
<path d="M195.286 17.1583C198.918 17.1583 201.862 14.2143 201.862 10.5828C201.862 6.95128 198.918 4.00735 195.286 4.00735C191.655 4.00735 188.711 6.95128 188.711 10.5828C188.711 14.2143 191.655 17.1583 195.286 17.1583Z" fill="#F27F71"/>
<path fill-rule="evenodd" clip-rule="evenodd" d="M189.983 14.4688C191.226 13.229 192.999 12.4525 194.968 12.4525C197.125 12.4525 199.051 13.3857 200.296 14.8397C199.091 16.2581 197.292 17.1584 195.287 17.1584C193.11 17.1584 191.18 16.0992 189.983 14.4688Z" fill="#FFCFC8"/>
<path d="M195.141 11.6214C196.412 11.6214 197.443 10.5911 197.443 9.32024C197.443 8.04936 196.412 7.01912 195.141 7.01912C193.871 7.01912 192.84 8.04936 192.84 9.32024C192.84 10.5911 193.871 11.6214 195.141 11.6214Z" fill="#FFCFC8"/>
<path fill-rule="evenodd" clip-rule="evenodd" d="M192.84 9.33462V9.32023C192.84 8.05023 193.872 7.01912 195.141 7.01912C196.411 7.01912 197.442 8.05023 197.442 9.32023V9.33289C195.882 9.34648 195.141 7.72327 195.141 7.72327C194.728 9.05602 193.522 9.30477 192.84 9.33462Z" fill="black"/>
<path fill-rule="evenodd" clip-rule="evenodd" d="M200.25 46.0147H171.498V47.6483H200.25V46.0147ZM200.25 42.5567H171.498V44.1903H200.25V42.5567ZM200.25 39.2008H171.498V40.8344H200.25V39.2008ZM199.118 34.6325H168.035V37.2859H199.118V34.6325ZM200.25 29.7024H171.498V31.336H200.25V29.7024ZM200.25 26.2444H171.498V27.878H200.25V26.2444ZM200.25 22.8885H171.498V24.5221H200.25V22.8885ZM190.06 17.0864H168.035V19.7398H190.06V17.0864ZM186.174 12.1542H168.776V13.34H186.174V12.1542ZM181.712 9.81338H168.776V10.9993H181.712V9.81338ZM185.16 7.30308H168.776V8.48888H185.16V7.30308ZM186.965 4.86687H168.776V6.0528H186.965V4.86687Z" fill="#F27F71"/>
<path d="M224.821 39.9486H191.296V59.4282H224.821V39.9486Z" fill="#A8CFCC"/>
<path fill-rule="evenodd" clip-rule="evenodd" d="M224.821 41.2268L208.357 52.3384C208.176 52.4599 207.94 52.4599 207.76 52.3384L191.296 41.231V39.9486H191.3L208.059 51.2538L224.81 39.9486H224.821V41.2268Z" fill="#82B5B2"/>
<path fill-rule="evenodd" clip-rule="evenodd" d="M184.334 64.8339L181.847 62.0009L184.995 59.238L182.685 56.6074L194.332 53.5494L189.791 64.7017L187.481 62.071L184.334 64.8339Z" fill="#F27F71"/>
<defs>
<linearGradient id="paint0_linear_5206_202" x1="53.5723" y1="108.511" x2="169.566" y2="149.487" gradientUnits="userSpaceOnUse">
<stop stop-color="#FFC3BB"/>
<stop offset="1" stop-color="#F27F71"/>
</linearGradient>
<linearGradient id="paint1_linear_5206_202" x1="34.8427" y1="41.9894" x2="-33.115" y2="81.8579" gradientUnits="userSpaceOnUse">
<stop stop-color="#F27F71"/>
<stop offset="0.58" stop-color="#EC6E5F"/>
<stop offset="0.8" stop-color="#E04B39"/>
<stop offset="1" stop-color="#D52914"/>
</linearGradient>
</defs>
</svg>
