<svg width="23" height="21" viewBox="0 0 23 21" fill="none" xmlns="http://www.w3.org/2000/svg">
<path fill-rule="evenodd" clip-rule="evenodd" d="M11.5128 3.80397L10.3805 2.67169C8.14311 0.434308 4.5156 0.434308 2.27822 2.67169C0.0408444 4.90907 0.0408446 8.53657 2.27822 10.774L11.4853 19.9811L11.4872 19.9792L11.5146 20.0066L20.7218 10.7995C22.9591 8.56213 22.9591 4.93462 20.7218 2.69725C18.4844 0.459866 14.8569 0.459866 12.6195 2.69725L11.5128 3.80397ZM11.4872 17.0329L16.6291 11.891L18.1404 10.4316L18.1419 10.4331L19.2486 9.32637C20.6724 7.90259 20.6724 5.59417 19.2486 4.17038C17.8248 2.7466 15.5164 2.7466 14.0926 4.17038L11.5139 6.74913L11.5064 6.74159L11.5052 6.74271L8.90735 4.14483C7.48356 2.72104 5.17515 2.72104 3.75136 4.14483C2.32758 5.56861 2.32758 7.87703 3.75136 9.30081L6.3966 11.946L6.39847 11.9442L11.4872 17.0329Z" fill="#2E2E2E"/>
</svg>
