<svg width="20" height="20" viewBox="0 0 20 20" fill="none" xmlns="http://www.w3.org/2000/svg">
<path fill-rule="evenodd" clip-rule="evenodd" d="M11.1095 2.01384C11.2562 1.84617 11.4681 1.75 11.6909 1.75C12.2456 1.75 12.6195 2.31713 12.401 2.82695L10.3106 7.70456C10.2113 7.93628 10.2351 8.2024 10.3739 8.41287C10.5127 8.62334 10.7479 8.75 11 8.75H14.8104C15.5365 8.75 16.0313 8.7507 16.4067 8.78407C16.7768 8.81698 16.9401 8.87608 17.036 8.93507C17.2999 9.09723 17.4941 9.35153 17.5811 9.64872C17.6128 9.75684 17.6269 9.92986 17.5612 10.2957C17.4946 10.6665 17.3651 11.1442 17.1741 11.8446L15.9195 16.4446C15.6713 17.3548 15.591 17.5966 15.4617 17.764C15.3281 17.9371 15.1514 18.0721 14.9492 18.1555C14.7537 18.2362 14.4992 18.25 13.5559 18.25H7.2C6.62757 18.25 6.24336 18.2494 5.94748 18.2252C5.66035 18.2018 5.52307 18.1599 5.43251 18.1138C5.19731 17.9939 5.00608 17.8027 4.88624 17.5675C4.8401 17.4769 4.79822 17.3396 4.77476 17.0525C4.75058 16.7566 4.75 16.3724 4.75 15.8V10.2024C4.75 9.72518 4.75402 9.5978 4.77895 9.48399C4.80463 9.36676 4.84706 9.25384 4.90493 9.1487C4.96111 9.04664 5.04197 8.94812 5.35619 8.58902L11.1095 2.01384ZM11.6909 0.25C11.0356 0.25 10.4121 0.532894 9.9806 1.02608L4.22732 7.60126L4.18403 7.6507C3.93296 7.93733 3.73526 8.16303 3.59085 8.42538C3.46354 8.65668 3.37019 8.90511 3.3137 9.16302C3.24962 9.45555 3.24977 9.75559 3.24998 10.1366L3.25 10.2024V15.8L3.25 15.8304C3.24999 16.3646 3.24998 16.8104 3.27974 17.1747C3.31078 17.5546 3.37789 17.9112 3.54973 18.2485C3.81338 18.7659 4.23408 19.1866 4.75153 19.4503C5.08879 19.6221 5.44545 19.6892 5.82533 19.7203C6.18956 19.75 6.6354 19.75 7.16955 19.75H7.2H13.5559L13.69 19.7501C14.4326 19.7508 15.0142 19.7514 15.5214 19.5421C15.9661 19.3586 16.3549 19.0616 16.6489 18.6809C16.9843 18.2466 17.1368 17.6853 17.3314 16.9688L17.3667 16.8393L18.6212 12.2393L18.6304 12.2058L18.6304 12.2057C18.81 11.5472 18.9579 11.005 19.0376 10.5606C19.1196 10.1037 19.1479 9.66177 19.0207 9.22718C18.8292 8.57337 18.4019 8.0139 17.8215 7.65716C17.4357 7.42004 17.0019 7.33108 16.5395 7.28996C16.0898 7.24998 15.5278 7.24999 14.8452 7.25H14.8104H12.1374L13.7798 3.41783C14.4225 1.91821 13.3224 0.25 11.6909 0.25ZM1.75 9C1.75 8.58579 1.41421 8.25 1 8.25C0.585786 8.25 0.25 8.58579 0.25 9V19C0.25 19.4142 0.585787 19.75 1 19.75C1.41421 19.75 1.75 19.4142 1.75 19L1.75 9Z" fill="#636F7E"/>
</svg>
