<svg width="10" height="10" viewBox="0 0 10 10" fill="none" xmlns="http://www.w3.org/2000/svg">
<path fill-rule="evenodd" clip-rule="evenodd" d="M8.25 1.25H5.01063L4.79 1.34125L0.625 5.50625V5.94813L3.86438 9.1875H4.30625L5.69063 7.80312C6.09495 8.01645 6.54537 8.12752 7.00252 8.12665C7.45967 8.12578 7.90966 8.01299 8.31317 7.79813C8.71669 7.58328 9.06146 7.27288 9.31737 6.89407C9.57328 6.51526 9.73254 6.07955 9.78125 5.625C9.79813 5.52125 9.80875 5.4175 9.81313 5.3125C9.81268 4.8502 9.69841 4.39512 9.48041 3.98745C9.2624 3.57978 8.94737 3.23206 8.56313 2.975V1.5625L8.25063 1.25H8.25ZM7.9375 2.66187C7.63645 2.55512 7.31942 2.50038 7 2.5C6.91712 2.5 6.83764 2.53292 6.77903 2.59153C6.72042 2.65013 6.6875 2.72962 6.6875 2.8125C6.6875 2.89538 6.72042 2.97487 6.77903 3.03347C6.83764 3.09208 6.91712 3.125 7 3.125C7.3243 3.12505 7.64452 3.19721 7.9375 3.33625V4.6725L5.48438 7.125C5.42622 7.15508 5.37883 7.20247 5.34875 7.26062L4.085 8.52437L1.28813 5.72688L5.14 1.875H7.9375V2.66187ZM8.5625 3.78188C8.96304 4.19068 9.18742 4.74018 9.1875 5.3125C9.18451 5.4173 9.17386 5.52175 9.15563 5.625C9.10937 5.95481 8.98814 6.26964 8.80124 6.5453C8.61435 6.82096 8.36676 7.05012 8.0775 7.21518C7.78824 7.38023 7.46499 7.4768 7.13259 7.49747C6.80019 7.51813 6.46748 7.46234 6.16 7.33437L8.47125 5.02312L8.5625 4.80188V3.78188Z" fill="#AAAAAA"/>
</svg>
