<svg width="81" height="112" viewBox="0 0 81 112" fill="none" xmlns="http://www.w3.org/2000/svg">
<g filter="url(#filter0_d_101_5)">
<path d="M81 45.9178C73.04 45.9408 65.2753 42.9374 58.8027 37.3319V76.4269C58.8005 83.6677 56.9712 90.7351 53.5595 96.6842C50.1478 102.633 45.3163 107.18 39.7109 109.717C34.1055 112.255 27.9936 112.661 22.1923 110.882C16.391 109.103 11.1768 105.223 7.24704 99.7621C3.31727 94.301 0.85919 87.5185 0.201479 80.3215C-0.456233 73.1246 0.717776 65.8562 3.56652 59.4883C6.41527 53.1204 10.803 47.9565 16.1429 44.6871C21.4829 41.4177 27.5205 40.1986 33.4486 41.1928V60.8563C30.7359 59.8239 27.823 59.855 25.1258 60.9451C22.4285 62.0352 20.085 64.1286 18.4298 66.9263C16.7746 69.724 15.8923 73.0829 15.9091 76.5234C15.9258 79.9639 16.8407 83.31 18.523 86.0839C20.2054 88.8578 22.5691 90.9176 25.2768 91.9692C27.9844 93.0208 30.8975 93.0104 33.5999 91.9395C36.3024 90.8685 38.6561 88.7918 40.3248 86.0059C41.9936 83.22 42.8921 79.8674 42.892 76.4269V0H58.8027C58.7916 1.62562 58.9042 3.24902 59.139 4.84969C59.6919 8.42293 60.8414 11.8221 62.5174 14.8394C64.1933 17.8567 66.3604 20.4286 68.8861 22.3978C72.4794 25.2724 76.6922 26.8045 81 26.8034V45.9178Z" fill="black"/>
</g>
<defs>
<filter id="filter0_d_101_5" x="-3.97656" y="0" width="88.9766" height="119.972" filterUnits="userSpaceOnUse" color-interpolation-filters="sRGB">
<feFlood flood-opacity="0" result="BackgroundImageFix"/>
<feColorMatrix in="SourceAlpha" type="matrix" values="0 0 0 0 0 0 0 0 0 0 0 0 0 0 0 0 0 0 127 0" result="hardAlpha"/>
<feOffset dy="4"/>
<feGaussianBlur stdDeviation="2"/>
<feComposite in2="hardAlpha" operator="out"/>
<feColorMatrix type="matrix" values="0 0 0 0 0 0 0 0 0 0 0 0 0 0 0 0 0 0 0.25 0"/>
<feBlend mode="normal" in2="BackgroundImageFix" result="effect1_dropShadow_101_5"/>
<feBlend mode="normal" in="SourceGraphic" in2="effect1_dropShadow_101_5" result="shape"/>
</filter>
</defs>
</svg>
