<svg width="21" height="20" viewBox="0 0 21 20" fill="none" xmlns="http://www.w3.org/2000/svg">
<path d="M3.70188 1.03131H17.2365C18.7174 1.03131 19.9178 2.23174 19.9178 3.71268V16.2118C19.9178 17.6928 18.7174 18.8932 17.2365 18.8932H3.70188C2.22094 18.8932 1.02051 17.6928 1.02051 16.2118V3.71268C1.02051 2.23174 2.22094 1.03131 3.70188 1.03131V1.03131Z" stroke="#0068FF" stroke-width="0.377902" stroke-miterlimit="10"/>
<path d="M4.38664 16.7027C4.31241 16.6698 4.2588 16.6326 4.3454 16.5584C4.39902 16.5171 4.4568 16.48 4.51454 16.4429C5.05494 16.0922 5.56232 15.7086 5.89645 15.1435C6.17695 14.6732 6.13159 14.3968 5.78097 14.0503C3.82564 12.095 2.9676 9.75601 3.39664 6.99216C3.64001 5.43284 4.35367 4.08395 5.39318 2.91239C6.02023 2.20288 6.76687 1.62947 7.58365 1.15095C7.63313 1.12208 7.70329 1.11382 7.71151 1.03959C7.69502 0.998344 7.66615 1.01072 7.6414 1.01072C6.25122 1.01072 4.86105 0.981812 3.47499 1.01895C2.14669 1.06019 0.999929 2.08737 1.00404 3.56004C1.01227 7.86257 1.00404 12.1651 1.00404 16.4717C1.00404 17.8083 2.02296 18.9262 3.35535 18.9757C4.48152 19.0211 5.60772 18.984 6.73799 18.9798C6.82049 18.984 6.90298 18.9881 6.98551 18.9881H12.9422C14.4272 18.9881 15.9123 18.9964 17.3974 18.9881C18.7752 18.9881 19.8931 17.8743 19.8931 16.5006V14.0627C19.8931 14.0049 19.9137 13.943 19.8766 13.8811C19.8023 13.8853 19.7734 13.9471 19.7322 13.9884C18.9319 14.7928 17.9872 15.4405 16.9518 15.8984C14.4149 17.0163 11.8326 17.0946 9.21309 16.1954C8.98622 16.1129 8.73869 16.1046 8.50355 16.1624C8.15704 16.249 7.81465 16.3521 7.47226 16.4553C6.46572 16.7687 5.43858 16.909 4.38664 16.7027ZM7.37738 9.7519C7.4475 9.66114 7.48463 9.60752 7.52588 9.5539C8.06628 8.86911 8.60668 8.18432 9.14708 7.49543C9.30385 7.29742 9.46057 7.09529 9.55959 6.85603C9.67511 6.58376 9.55133 6.32801 9.27083 6.22903C9.14708 6.1919 9.01508 6.17541 8.88307 6.18363C8.14878 6.17952 7.4104 6.17952 6.67611 6.18363C6.57297 6.18363 6.46987 6.19601 6.37085 6.22076C6.13986 6.2785 5.99959 6.51364 6.05733 6.74879C6.09861 6.90555 6.22235 7.02929 6.37911 7.06643C6.47809 7.09118 6.58124 7.10355 6.68437 7.0994C7.12986 7.10355 7.5795 7.0994 8.02503 7.10355C8.07455 7.10355 8.1364 7.07054 8.17353 7.14481C8.1364 7.19427 8.0993 7.24379 8.06217 7.28918C7.42278 8.09772 6.78751 8.91035 6.14809 9.71889C5.99132 9.921 5.90883 10.1438 6.02434 10.3913C6.13986 10.6388 6.37496 10.6842 6.61426 10.7007C6.804 10.713 6.99785 10.7048 7.19176 10.7048C7.86005 10.7048 8.52419 10.7089 9.19245 10.7007C9.54722 10.6966 9.73696 10.482 9.69987 10.152C9.67096 9.89214 9.4936 9.75601 9.16358 9.7519C8.58193 9.74775 8.00028 9.7519 7.37738 9.7519ZM12.1625 7.58207C11.6469 7.13243 11.0777 7.10355 10.5207 7.43357C9.84422 7.82955 9.59673 8.4772 9.67923 9.22799C9.75761 9.92927 10.0629 10.5026 10.7971 10.7378C11.255 10.8863 11.6799 10.8327 12.0553 10.5274C12.1543 10.449 12.1832 10.4656 12.2533 10.5522C12.3895 10.7254 12.6246 10.7914 12.8308 10.713C13.0371 10.6512 13.1732 10.4614 13.1732 10.2469C13.1773 9.42189 13.1815 8.59683 13.1732 7.77181C13.1691 7.4418 12.8597 7.23141 12.538 7.29741C12.3605 7.33455 12.2616 7.45417 12.1625 7.58207ZM15.0213 9.11248C15.0048 10.1438 15.8587 10.9234 16.9312 10.8162C17.9171 10.7172 18.5565 9.97878 18.5235 8.93512C18.4905 7.90382 17.7232 7.19843 16.6713 7.23141C15.6854 7.26028 14.9883 8.05231 15.0213 9.11248ZM14.6583 8.29157C14.6583 7.64392 14.6624 7.00042 14.6583 6.35277C14.6583 6.02276 14.4479 5.81648 14.1344 5.82063C13.8291 5.82474 13.627 6.03102 13.6229 6.34866C13.6187 6.54252 13.6229 6.7323 13.6229 6.92615V10.2057C13.6229 10.4614 13.7796 10.6842 13.9859 10.7378C14.2705 10.8162 14.5634 10.647 14.6376 10.3624C14.65 10.3129 14.6583 10.2634 14.6542 10.2098C14.6624 9.57039 14.6583 8.931 14.6583 8.29157Z" fill="#FDFEFE"/>
<path d="M6.73396 18.984C5.6078 18.984 4.47747 19.0211 3.35131 18.9798C2.01888 18.9262 1 17.8083 1 16.4759C1 12.1734 1.00823 7.87086 1 3.56417C1 2.0915 2.15088 1.06436 3.47506 1.02723C4.86112 0.990092 6.25129 1.01897 7.64147 1.01897C7.66622 1.01897 7.69921 1.00658 7.71158 1.04783C7.70336 1.1221 7.62909 1.13037 7.58372 1.15923C6.76694 1.63775 6.0203 2.21113 5.39325 2.92068C4.35785 4.09219 3.64008 5.43701 3.39671 7.00044C2.96767 9.76015 3.82983 12.1032 5.78104 14.0586C6.12755 14.4092 6.17291 14.6815 5.89652 15.1517C5.56239 15.7169 5.05501 16.1005 4.51461 16.4511C4.45687 16.4842 4.39909 16.5254 4.34136 16.5625C4.25471 16.6368 4.30833 16.6739 4.3826 16.7069C4.39909 16.744 4.41974 16.777 4.44449 16.8101C4.91885 17.2308 5.3685 17.6804 5.83467 18.1095C6.05458 18.3129 6.2705 18.5205 6.48232 18.7324C6.56893 18.8107 6.71331 18.8355 6.73396 18.984Z" fill="#0068FF" stroke="#0068FF" stroke-width="0.046374" stroke-miterlimit="3" stroke-linecap="square"/>
<path d="M10.7023 9.0877C10.6982 8.50609 11.0158 8.15543 11.4655 8.18018C11.6593 8.18846 11.8409 8.28333 11.9564 8.4442C12.1874 8.75357 12.1874 9.27333 11.9564 9.58685C11.7336 9.88388 11.3087 9.94574 11.0076 9.72297C10.9581 9.68588 10.9127 9.64047 10.8714 9.58685C10.7683 9.44247 10.7106 9.26921 10.7023 9.0877ZM16.0568 9.01347C16.0568 8.50193 16.3703 8.15954 16.8158 8.18429C17.0097 8.18846 17.1912 8.28744 17.3067 8.4442C17.5418 8.75772 17.5418 9.28986 17.3026 9.59923C17.0715 9.89211 16.6425 9.94162 16.3497 9.71063C16.3043 9.67761 16.2671 9.63636 16.2341 9.59097C16.1104 9.42187 16.0526 9.2197 16.0568 9.01347Z" fill="#FDFEFE"/>
<path d="M10.7088 7.65083V7.66107C10.7088 7.66173 10.7088 7.66237 10.7087 7.66299C10.7087 7.6636 10.7086 7.66417 10.7085 7.66471H10.7088C10.7091 7.6639 10.7095 7.6632 10.71 7.66261C10.7106 7.66202 10.7112 7.66157 10.7119 7.66125C10.7126 7.66092 10.7134 7.66075 10.7142 7.66075C10.7156 7.66075 10.7167 7.66107 10.7176 7.66172C10.7185 7.66236 10.7192 7.6633 10.7196 7.66455C10.72 7.66579 10.7202 7.66733 10.7202 7.66917V7.68607H10.7167V7.66985C10.7167 7.66771 10.7165 7.66618 10.716 7.66526C10.7155 7.66434 10.7146 7.66387 10.7135 7.66387C10.7124 7.66387 10.7115 7.6642 10.7109 7.66485C10.7102 7.6655 10.7096 7.6665 10.7093 7.66786C10.709 7.6692 10.7088 7.67093 10.7088 7.67305V7.68607H10.7053V7.65083H10.7088ZM10.7321 7.68344C10.7324 7.68344 10.7328 7.6834 10.7332 7.68333C10.7336 7.68324 10.7339 7.68311 10.7343 7.68296V7.68582C10.7338 7.68603 10.7333 7.68619 10.7328 7.68631C10.7322 7.68645 10.7316 7.68652 10.731 7.68652C10.7299 7.68652 10.729 7.68628 10.7283 7.68579C10.7276 7.68531 10.7271 7.68459 10.7268 7.68364C10.7265 7.68268 10.7263 7.68147 10.7263 7.68002V7.66412H10.724V7.66222L10.7265 7.66129L10.7274 7.65556H10.7298V7.6612H10.734V7.66412H10.7298V7.67961C10.7298 7.6809 10.73 7.68185 10.7303 7.68249C10.7306 7.68312 10.7312 7.68344 10.7321 7.68344ZM10.7438 7.68344C10.7442 7.68344 10.7446 7.6834 10.745 7.68333C10.7454 7.68324 10.7457 7.68311 10.7461 7.68296V7.68582C10.7456 7.68603 10.7451 7.68619 10.7445 7.68631C10.744 7.68645 10.7434 7.68652 10.7427 7.68652C10.7417 7.68652 10.7408 7.68628 10.7401 7.68579C10.7394 7.68531 10.7389 7.68459 10.7386 7.68364C10.7383 7.68268 10.7381 7.68147 10.7381 7.68002V7.66412H10.7358V7.66222L10.7383 7.66129L10.7392 7.65556H10.7416V7.6612H10.7458V7.66412H10.7416V7.67961C10.7416 7.6809 10.7417 7.68185 10.742 7.68249C10.7423 7.68312 10.743 7.68344 10.7438 7.68344ZM10.7588 7.66075C10.7612 7.66075 10.763 7.66182 10.7642 7.66397C10.7654 7.66609 10.766 7.6693 10.766 7.67359C10.766 7.67635 10.7658 7.6787 10.7652 7.68063C10.7647 7.68255 10.7639 7.68401 10.7628 7.68502C10.7617 7.68602 10.7605 7.68652 10.7589 7.68652C10.7581 7.68652 10.7573 7.68636 10.7566 7.68604C10.7559 7.68571 10.7552 7.68525 10.7547 7.68466C10.7541 7.68406 10.7536 7.68336 10.7533 7.68256H10.7531C10.7531 7.68316 10.7532 7.68374 10.7532 7.6843C10.7532 7.68486 10.7533 7.68539 10.7533 7.68588V7.69716H10.7498V7.6612H10.7526L10.753 7.66485H10.7532C10.7537 7.66393 10.7541 7.66317 10.7547 7.66256C10.7552 7.66196 10.7559 7.6615 10.7565 7.6612C10.7572 7.6609 10.758 7.66075 10.7588 7.66075ZM10.758 7.66376C10.757 7.66376 10.7561 7.66409 10.7554 7.66476C10.7547 7.66542 10.7541 7.66643 10.7538 7.66777C10.7534 7.6691 10.7533 7.67077 10.7533 7.6728V7.674C10.7533 7.67614 10.7534 7.67791 10.7538 7.67932C10.7541 7.68072 10.7547 7.68176 10.7554 7.68244C10.7561 7.68312 10.757 7.68346 10.7581 7.68346C10.759 7.68346 10.7598 7.68311 10.7605 7.68242C10.7612 7.68173 10.7616 7.68065 10.762 7.6792C10.7623 7.67776 10.7625 7.6759 10.7625 7.67363C10.7625 7.67036 10.7621 7.6679 10.7614 7.66625C10.7608 7.66459 10.7596 7.66376 10.758 7.66376ZM10.7821 7.6795C10.7821 7.68099 10.7818 7.68227 10.7813 7.68333C10.7807 7.68437 10.7799 7.68516 10.7789 7.6857C10.7778 7.68625 10.7766 7.68652 10.7751 7.68652C10.774 7.68652 10.7729 7.68638 10.772 7.68611C10.771 7.68584 10.7702 7.68551 10.7695 7.68514V7.68151C10.7702 7.68206 10.771 7.68251 10.772 7.68287C10.773 7.68322 10.774 7.68339 10.775 7.68339C10.7762 7.68339 10.7771 7.68306 10.7777 7.6824C10.7783 7.68173 10.7786 7.6808 10.7786 7.67961C10.7786 7.6789 10.7785 7.67829 10.7782 7.67778C10.778 7.67725 10.7776 7.67675 10.777 7.67628C10.7764 7.6758 10.7757 7.67529 10.7748 7.67477C10.7737 7.67413 10.7728 7.67348 10.772 7.6728C10.7713 7.67212 10.7706 7.67134 10.7702 7.67046C10.7698 7.66957 10.7695 7.66849 10.7695 7.66723C10.7695 7.66529 10.7702 7.66373 10.7714 7.66254C10.7727 7.66135 10.7744 7.66075 10.7764 7.66075C10.7775 7.66075 10.7785 7.66089 10.7794 7.66116C10.7803 7.66141 10.7812 7.66181 10.782 7.66234L10.7807 7.66514C10.7801 7.66471 10.7794 7.66436 10.7787 7.6641C10.778 7.66384 10.7772 7.66372 10.7765 7.66372C10.7754 7.66372 10.7745 7.66403 10.7738 7.66464C10.7732 7.66526 10.7729 7.66609 10.7729 7.66714C10.7729 7.66783 10.773 7.66843 10.7733 7.66892C10.7735 7.66942 10.774 7.66991 10.7745 7.67037C10.7751 7.67084 10.7759 7.67137 10.7769 7.67196C10.7779 7.67261 10.7788 7.67327 10.7796 7.67395C10.7804 7.67462 10.781 7.67539 10.7814 7.67626C10.7818 7.67714 10.7821 7.67822 10.7821 7.6795ZM10.7864 7.68362C10.7864 7.68271 10.7866 7.68202 10.787 7.68154C10.7873 7.68105 10.7879 7.68081 10.7887 7.68081C10.7895 7.68081 10.79 7.68104 10.7904 7.68149C10.7909 7.68193 10.7911 7.68264 10.7911 7.68362C10.7911 7.68459 10.7909 7.6853 10.7904 7.68577C10.79 7.68622 10.7894 7.68645 10.7887 7.68645C10.7879 7.68645 10.7873 7.68621 10.787 7.68573C10.7866 7.68524 10.7864 7.68454 10.7864 7.68362ZM10.7864 7.6639C10.7864 7.66296 10.7866 7.66226 10.787 7.66179C10.7873 7.66131 10.7879 7.66107 10.7887 7.66107C10.7895 7.66107 10.7901 7.6613 10.7905 7.66177C10.7909 7.66224 10.7911 7.66294 10.7911 7.66387C10.7911 7.66484 10.7909 7.66557 10.7904 7.66605C10.79 7.66652 10.7894 7.66675 10.7887 7.66675C10.788 7.66675 10.7874 7.66651 10.787 7.66603C10.7866 7.66553 10.7864 7.66482 10.7864 7.6639ZM10.8102 7.65285L10.7981 7.68618H10.7948L10.807 7.65285H10.8102ZM10.8272 7.65285L10.8151 7.68618H10.8118L10.824 7.65285H10.8272ZM10.8344 7.65083V7.66843C10.8344 7.6693 10.8344 7.67015 10.8343 7.67099C10.8343 7.67182 10.8342 7.67265 10.8342 7.6735H10.8343C10.8346 7.67299 10.8348 7.67249 10.8351 7.67203C10.8354 7.67156 10.8356 7.67111 10.8359 7.67067L10.8416 7.6612H10.8454L10.8394 7.67076L10.8458 7.68607H10.842L10.837 7.67357L10.8344 7.67685V7.68607H10.8309V7.65083H10.8344ZM10.8525 7.65083V7.66107C10.8525 7.66173 10.8525 7.66237 10.8524 7.66299C10.8524 7.6636 10.8523 7.66417 10.8522 7.66471H10.8525C10.8528 7.6639 10.8532 7.6632 10.8537 7.66261C10.8543 7.66202 10.8549 7.66157 10.8556 7.66125C10.8563 7.66092 10.8571 7.66075 10.8579 7.66075C10.8593 7.66075 10.8604 7.66107 10.8613 7.66172C10.8622 7.66236 10.8629 7.6633 10.8633 7.66455C10.8637 7.66579 10.8639 7.66733 10.8639 7.66917V7.68607H10.8604V7.66985C10.8604 7.66771 10.8602 7.66618 10.8597 7.66526C10.8592 7.66434 10.8583 7.66387 10.8572 7.66387C10.8561 7.66387 10.8552 7.6642 10.8545 7.66485C10.8539 7.6655 10.8533 7.6665 10.853 7.66786C10.8527 7.6692 10.8525 7.67093 10.8525 7.67305V7.68607H10.849V7.65083H10.8525ZM10.8853 7.67361C10.8853 7.67557 10.8852 7.67735 10.8848 7.67893C10.8845 7.68052 10.884 7.68188 10.8833 7.68301C10.8826 7.68414 10.8818 7.68501 10.8807 7.68561C10.8797 7.68622 10.8785 7.68652 10.8771 7.68652C10.8757 7.68652 10.8745 7.68622 10.8735 7.68561C10.8725 7.68501 10.8716 7.68415 10.8709 7.68303C10.8702 7.6819 10.8697 7.68054 10.8694 7.67896C10.869 7.67736 10.8689 7.67557 10.8689 7.67361C10.8689 7.67086 10.8692 7.66854 10.8697 7.66664C10.8703 7.66472 10.8712 7.66326 10.8725 7.66227C10.8737 7.66126 10.8752 7.66075 10.8771 7.66075C10.8789 7.66075 10.8804 7.66124 10.8816 7.66222C10.8828 7.66319 10.8838 7.66463 10.8844 7.66655C10.885 7.66845 10.8853 7.6708 10.8853 7.67361ZM10.8724 7.67361C10.8724 7.67577 10.8726 7.67758 10.8729 7.67905C10.8732 7.68051 10.8738 7.68161 10.8745 7.68235C10.8752 7.68309 10.8761 7.68346 10.8771 7.68346C10.8782 7.68346 10.8791 7.6831 10.8798 7.68237C10.8805 7.68165 10.881 7.68056 10.8813 7.67911C10.8816 7.67765 10.8818 7.67582 10.8818 7.67361C10.8818 7.67145 10.8816 7.66965 10.8813 7.6682C10.881 7.66674 10.8805 7.66564 10.8798 7.66492C10.8791 7.66418 10.8782 7.66381 10.8771 7.66381C10.8755 7.66381 10.8743 7.66463 10.8735 7.66628C10.8728 7.66791 10.8724 7.67035 10.8724 7.67361ZM10.9014 7.6795C10.9014 7.68099 10.9011 7.68227 10.9006 7.68333C10.9 7.68437 10.8992 7.68516 10.8982 7.6857C10.8972 7.68625 10.8959 7.68652 10.8944 7.68652C10.8933 7.68652 10.8923 7.68638 10.8913 7.68611C10.8903 7.68584 10.8895 7.68551 10.8889 7.68514V7.68151C10.8895 7.68206 10.8904 7.68251 10.8913 7.68287C10.8923 7.68322 10.8933 7.68339 10.8943 7.68339C10.8955 7.68339 10.8964 7.68306 10.897 7.6824C10.8976 7.68173 10.898 7.6808 10.898 7.67961C10.898 7.6789 10.8978 7.67829 10.8976 7.67778C10.8973 7.67725 10.8969 7.67675 10.8963 7.67628C10.8958 7.6758 10.895 7.67529 10.8941 7.67477C10.8931 7.67413 10.8922 7.67348 10.8914 7.6728C10.8906 7.67212 10.89 7.67134 10.8895 7.67046C10.8891 7.66957 10.8889 7.66849 10.8889 7.66723C10.8889 7.66529 10.8895 7.66373 10.8908 7.66254C10.892 7.66135 10.8937 7.66075 10.8958 7.66075C10.8968 7.66075 10.8978 7.66089 10.8987 7.66116C10.8996 7.66141 10.9005 7.66181 10.9014 7.66234L10.9 7.66514C10.8994 7.66471 10.8987 7.66436 10.898 7.6641C10.8973 7.66384 10.8966 7.66372 10.8958 7.66372C10.8947 7.66372 10.8938 7.66403 10.8932 7.66464C10.8925 7.66526 10.8922 7.66609 10.8922 7.66714C10.8922 7.66783 10.8924 7.66843 10.8926 7.66892C10.8929 7.66942 10.8933 7.66991 10.8939 7.67037C10.8945 7.67084 10.8952 7.67137 10.8962 7.67196C10.8972 7.67261 10.8981 7.67327 10.8989 7.67395C10.8997 7.67462 10.9003 7.67539 10.9007 7.67626C10.9012 7.67714 10.9014 7.67822 10.9014 7.6795ZM10.9208 7.6612V7.68607H10.918L10.9176 7.68253H10.9173C10.917 7.68335 10.9166 7.68406 10.916 7.68466C10.9155 7.68525 10.9149 7.68571 10.9142 7.68604C10.9135 7.68636 10.9127 7.68652 10.9119 7.68652C10.9104 7.68652 10.9092 7.68616 10.9083 7.68543C10.9075 7.68471 10.9068 7.68367 10.9064 7.68233C10.906 7.68099 10.9058 7.67939 10.9058 7.67753V7.6612H10.9093V7.67687C10.9093 7.67911 10.9096 7.68075 10.9101 7.68181C10.9106 7.68287 10.9114 7.68339 10.9125 7.68339C10.9137 7.68339 10.9146 7.68308 10.9153 7.68244C10.916 7.68179 10.9165 7.68082 10.9168 7.67952C10.9171 7.67821 10.9173 7.67655 10.9173 7.67454V7.6612H10.9208ZM10.9464 7.66075C10.9483 7.66075 10.9498 7.66146 10.9507 7.66288C10.9516 7.66428 10.9521 7.66643 10.9521 7.66931V7.68607H10.9486V7.66992C10.9486 7.66775 10.9484 7.66619 10.9478 7.66526C10.9473 7.66431 10.9465 7.66383 10.9454 7.66383C10.9439 7.66383 10.9428 7.66454 10.9422 7.66596C10.9415 7.66738 10.9412 7.66943 10.9412 7.67212V7.68607H10.9378V7.66988C10.9378 7.6684 10.9376 7.66722 10.9374 7.66634C10.9372 7.66545 10.9368 7.66481 10.9363 7.66442C10.9358 7.66403 10.9353 7.66383 10.9345 7.66383C10.9334 7.66383 10.9325 7.66421 10.9319 7.66498C10.9313 7.66575 10.9309 7.66681 10.9307 7.66815C10.9304 7.6695 10.9303 7.67103 10.9303 7.67275V7.68607H10.9268V7.6612H10.9296L10.93 7.66474H10.9302C10.9306 7.66389 10.931 7.66317 10.9315 7.66258C10.932 7.662 10.9326 7.66154 10.9332 7.66123C10.9339 7.66091 10.9347 7.66075 10.9356 7.66075C10.937 7.66075 10.9381 7.66114 10.9389 7.66193C10.9398 7.6627 10.9403 7.66367 10.9406 7.66485H10.9408C10.9414 7.66346 10.9421 7.66243 10.943 7.66177C10.9439 7.66109 10.945 7.66075 10.9464 7.66075ZM10.9735 7.67361C10.9735 7.67557 10.9734 7.67735 10.973 7.67893C10.9727 7.68052 10.9722 7.68188 10.9715 7.68301C10.9708 7.68414 10.97 7.68501 10.9689 7.68561C10.9679 7.68622 10.9666 7.68652 10.9652 7.68652C10.9639 7.68652 10.9627 7.68622 10.9617 7.68561C10.9606 7.68501 10.9598 7.68415 10.9591 7.68303C10.9584 7.6819 10.9579 7.68054 10.9576 7.67896C10.9572 7.67736 10.957 7.67557 10.957 7.67361C10.957 7.67086 10.9573 7.66854 10.9579 7.66664C10.9585 7.66472 10.9594 7.66326 10.9606 7.66227C10.9619 7.66126 10.9634 7.66075 10.9653 7.66075C10.9671 7.66075 10.9686 7.66124 10.9698 7.66222C10.971 7.66319 10.9719 7.66463 10.9726 7.66655C10.9732 7.66845 10.9735 7.6708 10.9735 7.67361ZM10.9606 7.67361C10.9606 7.67577 10.9608 7.67758 10.9611 7.67905C10.9614 7.68051 10.9619 7.68161 10.9626 7.68235C10.9633 7.68309 10.9642 7.68346 10.9653 7.68346C10.9664 7.68346 10.9673 7.6831 10.9679 7.68237C10.9686 7.68165 10.9692 7.68056 10.9695 7.67911C10.9698 7.67765 10.97 7.67582 10.97 7.67361C10.97 7.67145 10.9698 7.66965 10.9695 7.6682C10.9692 7.66674 10.9686 7.66564 10.9679 7.66492C10.9673 7.66418 10.9664 7.66381 10.9653 7.66381C10.9636 7.66381 10.9624 7.66463 10.9617 7.66628C10.961 7.66791 10.9606 7.67035 10.9606 7.67361ZM10.9783 7.68364C10.9783 7.68272 10.9784 7.68202 10.9788 7.68154C10.9792 7.68105 10.9798 7.68081 10.9806 7.68081C10.9813 7.68081 10.9819 7.68104 10.9823 7.68149C10.9828 7.68193 10.983 7.68265 10.983 7.68364C10.983 7.68461 10.9828 7.68532 10.9823 7.68577C10.9819 7.68622 10.9813 7.68645 10.9806 7.68645C10.9799 7.68645 10.9793 7.68622 10.9789 7.68575C10.9785 7.68527 10.9783 7.68456 10.9783 7.68364ZM10.996 7.68652C10.9942 7.68652 10.9926 7.68604 10.9914 7.68509C10.9902 7.68414 10.9893 7.68272 10.9887 7.68084C10.9881 7.67895 10.9878 7.67661 10.9878 7.67382C10.9878 7.67108 10.9881 7.66874 10.9887 7.6668C10.9893 7.66485 10.9902 7.66335 10.9915 7.66231C10.9927 7.66127 10.9943 7.66075 10.9961 7.66075C10.9971 7.66075 10.9979 7.66085 10.9986 7.66104C10.9994 7.66124 11.0001 7.66152 11.0007 7.66188L10.9996 7.66476C10.9991 7.66446 10.9985 7.66423 10.998 7.66408C10.9974 7.66393 10.9969 7.66385 10.9963 7.66385C10.9953 7.66385 10.9943 7.66423 10.9936 7.66498C10.9929 7.66572 10.9923 7.66683 10.9919 7.66829C10.9915 7.66975 10.9913 7.67158 10.9913 7.67377C10.9913 7.6759 10.9915 7.67768 10.9919 7.67911C10.9923 7.68055 10.9928 7.68164 10.9936 7.68237C10.9943 7.6831 10.9952 7.68346 10.9964 7.68346C10.997 7.68346 10.9977 7.68337 10.9984 7.68319C10.9991 7.68299 10.9998 7.68271 11.0005 7.68235V7.6853C10.9998 7.68569 10.9991 7.68599 10.9982 7.6862C10.9974 7.68641 10.9967 7.68652 10.996 7.68652ZM11.0202 7.67361C11.0202 7.67557 11.02 7.67735 11.0197 7.67893C11.0193 7.68052 11.0188 7.68188 11.0181 7.68301C11.0175 7.68414 11.0166 7.68501 11.0156 7.68561C11.0145 7.68622 11.0133 7.68652 11.0119 7.68652C11.0105 7.68652 11.0093 7.68622 11.0083 7.68561C11.0073 7.68501 11.0064 7.68415 11.0057 7.68303C11.0051 7.6819 11.0045 7.68054 11.0042 7.67896C11.0039 7.67736 11.0037 7.67557 11.0037 7.67361C11.0037 7.67086 11.004 7.66854 11.0046 7.66664C11.0052 7.66472 11.0061 7.66326 11.0073 7.66227C11.0085 7.66126 11.0101 7.66075 11.0119 7.66075C11.0137 7.66075 11.0152 7.66124 11.0164 7.66222C11.0177 7.66319 11.0186 7.66463 11.0192 7.66655C11.0198 7.66845 11.0202 7.6708 11.0202 7.67361ZM11.0072 7.67361C11.0072 7.67577 11.0074 7.67758 11.0077 7.67905C11.0081 7.68051 11.0086 7.68161 11.0093 7.68235C11.01 7.68309 11.0109 7.68346 11.012 7.68346C11.013 7.68346 11.0139 7.6831 11.0146 7.68237C11.0153 7.68165 11.0158 7.68056 11.0161 7.67911C11.0165 7.67765 11.0166 7.67582 11.0166 7.67361C11.0166 7.67145 11.0165 7.66965 11.0161 7.6682C11.0158 7.66674 11.0153 7.66564 11.0146 7.66492C11.0139 7.66418 11.013 7.66381 11.0119 7.66381C11.0103 7.66381 11.0091 7.66463 11.0083 7.66628C11.0076 7.66791 11.0072 7.67035 11.0072 7.67361ZM11.0447 7.66075C11.0466 7.66075 11.0481 7.66146 11.049 7.66288C11.05 7.66428 11.0504 7.66643 11.0504 7.66931V7.68607H11.047V7.66992C11.047 7.66775 11.0467 7.66619 11.0461 7.66526C11.0456 7.66431 11.0448 7.66383 11.0437 7.66383C11.0422 7.66383 11.0411 7.66454 11.0405 7.66596C11.0398 7.66738 11.0395 7.66943 11.0395 7.67212V7.68607H11.0361V7.66988C11.0361 7.6684 11.036 7.66722 11.0357 7.66634C11.0355 7.66545 11.0351 7.66481 11.0346 7.66442C11.0342 7.66403 11.0336 7.66383 11.0328 7.66383C11.0317 7.66383 11.0309 7.66421 11.0303 7.66498C11.0297 7.66575 11.0292 7.66681 11.029 7.66815C11.0288 7.6695 11.0287 7.67103 11.0287 7.67275V7.68607H11.0252V7.6612H11.028L11.0284 7.66474H11.0286C11.0289 7.66389 11.0293 7.66317 11.0298 7.66258C11.0303 7.662 11.0309 7.66154 11.0316 7.66123C11.0322 7.66091 11.033 7.66075 11.0339 7.66075C11.0353 7.66075 11.0364 7.66114 11.0373 7.66193C11.0381 7.6627 11.0386 7.66367 11.0389 7.66485H11.0392C11.0397 7.66346 11.0405 7.66243 11.0413 7.66177C11.0422 7.66109 11.0433 7.66075 11.0447 7.66075Z" fill="white"/>
<path d="M6.73404 18.984C6.7134 18.8396 6.56901 18.8148 6.4824 18.7282C6.27202 18.5137 6.05337 18.3074 5.83476 18.1053C5.36858 17.6763 4.91894 17.2266 4.44458 16.8059C4.41982 16.7729 4.39918 16.7399 4.38269 16.7027C5.43458 16.909 6.46176 16.7687 7.47242 16.4594C7.81481 16.3562 8.1572 16.2531 8.50371 16.1665C8.73885 16.1046 8.98637 16.117 9.21325 16.1995C11.8286 17.0988 14.4109 17.0163 16.952 15.9025C17.9874 15.4446 18.9321 14.8011 19.7324 13.9966C19.7736 13.9554 19.8025 13.8935 19.8767 13.8894C19.9139 13.9471 19.8932 14.009 19.8932 14.0709V16.4841C19.9015 17.8619 18.7959 18.984 17.4181 18.9963H17.3975C15.9125 19.0046 14.4274 18.9963 12.9424 18.9963H6.98152C6.89929 18.9881 6.81669 18.984 6.73404 18.984Z" fill="#0068FF" stroke="#0068FF" stroke-width="0.046374" stroke-miterlimit="3" stroke-linecap="square"/>
<path d="M7.37752 9.75188C8.00042 9.75188 8.58618 9.74772 9.16782 9.75188C9.49373 9.75599 9.67109 9.89211 9.70412 10.152C9.74125 10.4779 9.55147 10.6965 9.19674 10.7006C8.52844 10.7089 7.86429 10.7048 7.19601 10.7048C7.00214 10.7048 6.81236 10.713 6.61851 10.7006C6.37925 10.6883 6.1441 10.6388 6.02859 10.3913C5.91312 10.1437 5.99561 9.92097 6.15237 9.71886C6.78765 8.91033 7.42703 8.09769 8.06642 7.28916C8.10355 7.23965 8.14069 7.19014 8.17782 7.14478C8.13653 7.07462 8.0788 7.10765 8.02928 7.10353C7.58379 7.09938 7.13415 7.10353 6.68863 7.09938C6.58548 7.09938 6.48238 7.08701 6.38336 7.0664C6.14822 7.01278 6.00384 6.77763 6.05746 6.54664C6.0946 6.38988 6.21837 6.26198 6.3751 6.22486C6.47412 6.20009 6.57726 6.18772 6.68036 6.18772C7.41465 6.1836 8.15307 6.1836 8.88732 6.18772C9.01933 6.1836 9.14722 6.20009 9.27508 6.23312C9.55562 6.32799 9.67524 6.58789 9.56385 6.86013C9.46486 7.09527 9.3081 7.29739 9.15133 7.49955C8.61293 8.18589 8.07255 8.87067 7.53017 9.55387C7.48477 9.6075 7.44352 9.66111 7.37752 9.75188Z" fill="#0068FF"/>
<path d="M12.1627 7.58206C12.2617 7.45417 12.3649 7.33454 12.534 7.30156C12.8599 7.23556 13.1651 7.44591 13.1692 7.77592C13.1816 8.60098 13.1775 9.426 13.1692 10.251C13.1692 10.4655 13.029 10.6553 12.8269 10.7172C12.6206 10.7955 12.3855 10.7337 12.2494 10.5563C12.1792 10.4697 12.1504 10.4532 12.0514 10.5315C11.676 10.8368 11.2511 10.8904 10.7932 10.7419C10.0589 10.5026 9.75778 9.92926 9.67528 9.23209C9.58864 8.47719 9.84027 7.8337 10.5168 7.43767C11.0778 7.10355 11.6471 7.13242 12.1627 7.58206ZM10.7024 9.08772C10.7107 9.26923 10.7684 9.44249 10.8757 9.58686C11.0984 9.8839 11.5233 9.94576 11.8245 9.72299C11.874 9.6859 11.9194 9.64049 11.9606 9.58686C12.1916 9.27335 12.1916 8.75774 11.9606 8.44421C11.8451 8.28334 11.6636 8.18847 11.4697 8.18431C11.0159 8.15545 10.6983 8.50611 10.7024 9.08772ZM15.0215 9.11247C14.9885 8.05231 15.6856 7.26027 16.6756 7.2314C17.7276 7.19843 18.4948 7.90381 18.5278 8.93511C18.5609 9.97877 17.9214 10.7172 16.9355 10.8162C15.8589 10.9234 15.005 10.1438 15.0215 9.11247ZM16.0569 9.01349C16.0486 9.21972 16.1105 9.42188 16.2343 9.59098C16.4611 9.88802 16.886 9.94576 17.1831 9.71476C17.2284 9.68174 17.2656 9.64049 17.3027 9.59924C17.5419 9.28572 17.5419 8.75774 17.3068 8.44421C17.1913 8.28745 17.0098 8.18847 16.8159 8.18431C16.3704 8.15956 16.0569 8.49784 16.0569 9.01349ZM14.6584 8.29156C14.6584 8.93099 14.6626 9.57038 14.6584 10.2098C14.6626 10.5026 14.4316 10.746 14.1387 10.7543C14.0892 10.7543 14.0356 10.7502 13.986 10.7378C13.7798 10.6842 13.623 10.4655 13.623 10.2057V6.92614C13.623 6.73229 13.6189 6.54251 13.623 6.34865C13.6272 6.03101 13.8293 5.82474 14.1345 5.82474C14.4481 5.82063 14.6584 6.02686 14.6584 6.35688C14.6626 7.00041 14.6584 7.64807 14.6584 8.29156Z" fill="#0068FF"/>
</svg>
